<?xml version="1.0" encoding="UTF-8"?>
<svg width="700pt" height="700pt" version="1.1" viewBox="0 0 700 700" xmlns="http://www.w3.org/2000/svg" xmlns:xlink="http://www.w3.org/1999/xlink">
 <g>
  <path d="m427.96 33.434c-93.359 0-169.03 75.672-169.03 169.03 0 23.168 4.6562 45.242 13.082 65.32 8.7773 20.926 21.609 39.691 37.488 55.289 5.0352 4.9531 5.1328 13.227 0.074219 18.207l-17.602 17.652h69.438c1.9375 0 3.7773 0.42969 5.4219 1.1914 19.605 7.6055 40.102 11.371 61.129 11.371 93.352 0 169.03-75.672 169.03-169.03s-75.672-169.03-169.03-169.03zm-57.926 354.98v115.3c0 26.734-21.832 48.566-48.566 48.566h-195.61c-26.734 0-48.566-21.828-48.566-48.566v-406.31c0-26.734 21.828-48.566 48.566-48.566h182.4c33.023-25.77 74.57-41.129 119.7-41.129 107.55 0 194.75 87.195 194.75 194.75 0 107.55-87.203 194.75-194.75 194.75-19.586 0-39.215-2.9766-57.926-8.7969zm-88.93-313.86h-155.25c-12.539 0-22.844 10.312-22.844 22.852v406.31c0 12.539 10.297 22.852 22.844 22.852h195.61c12.539 0 22.844-10.312 22.844-22.852v-119.07h-11.18v73.828c0 7.1055-5.7617 12.859-12.859 12.859h-193.22c-7.1055 0-12.863-5.7539-12.863-12.859v-354.27c0-7.1055 5.7617-12.859 12.863-12.859h140.94c4.0664-5.8398 8.4453-11.449 13.109-16.801zm26.312 310.09h-46.484c-11.297-0.011719-17.25-13.789-9.0898-21.953l30.73-30.73c-14.246-15.965-25.895-34.27-34.27-54.238-9.7227-23.168-15.094-48.602-15.094-75.27 0-30.629 7.0703-59.605 19.672-85.391h-112.97v328.55h167.5v-60.969zm135.17-217.39-4.5391-2.6211c-14.047-8.1367-18.879-26.16-10.77-40.215l24.441-42.332c10.254-17.766 34.617-19.797 47.793-4.582 26.945 31.121 37.574 86.32 15.84 122.46l-49.461 85.668c-21.285 36.797-72.949 55.148-113.83 47.285-20.352-3.9141-30.312-27-19.547-44.367l24.031-41.664c4.0625-7.0391 10.609-11.773 17.891-13.719 7.25-1.9453 15.273-1.1094 22.324 2.9492 1.4336 0.85938 3.0703 1.7461 4.5586 2.6055l41.266-71.473zm9.0664-24.395 14.848 8.6055c6.1055 3.5391 8.2031 11.344 4.6914 17.461l-53.715 93.023-0.38281 0.72266c-3.5508 6.1328-11.395 8.2227-17.527 4.668l-15.602-9.0352c-1.793-1.0039-4.1953-0.33594-5.2188 1.4414l-24.434 42.332c-1.3633 2.3555-0.058594 5.1211 2.5742 5.6289 33.422 6.4219 67.504-7.4023 87.012-35.281l49.09-85.027c14.445-30.848 9.4531-67.352-12.863-93.113-1.7344-1.9961-4.8555-1.7656-6.1992 0.5625l-23.852 41.305c-1.5742 3.4531-1.8047 4.4258 1.582 6.707zm-249.88 367.66c-16.926 0-16.926-25.715 0-25.715h43.773c16.926 0 16.926 25.715 0 25.715z"/>
 </g>
</svg>
