<?xml version="1.0" encoding="UTF-8"?>
<svg width="700pt" height="700pt" version="1.1" viewBox="0 0 700 700" xmlns="http://www.w3.org/2000/svg" xmlns:xlink="http://www.w3.org/1999/xlink">
 <g>
  <path d="m398.36 117.92c-86.117 0-156.19 56.988-156.19 127.03 0 37.02 19.703 71.934 54.164 96.129-1.7656 5.293-4.1484 10.734-6.9492 15.863-5.6523 10.379-4.7266 22.652 2.4336 32.035 5.6523 7.4219 14.184 11.672 23.398 11.672 2.3633 0 4.707-0.26953 6.9648-0.8125 24.012-5.6523 43.941-15.297 59.273-28.684 5.9414 0.55859 11.48 0.83984 16.895 0.83984 86.125 0 156.19-56.988 156.19-127.03 0-70.043-70.051-127.04-156.18-127.04zm-67.039 218.73 2.0547-11.27-9.8789-5.8086c-30.828-18.129-48.512-45.324-48.512-74.609 0-51.957 55.344-94.219 123.38-94.219s123.38 42.27 123.38 94.219c0 51.957-55.344 94.219-123.38 94.219-6.3086 0-13.012-0.47266-20.512-1.4453l-8.1211-1.043-5.7227 5.8555c-10.281 10.516-24.535 18.418-42.453 23.527 4.6758-9.7734 8.0195-19.836 9.7695-29.426z"/>
  <path d="m357.23 250.53c0 12.719-10.309 23.027-23.027 23.027-12.723 0-23.031-10.309-23.031-23.027s10.309-23.031 23.031-23.031c12.719 0 23.027 10.312 23.027 23.031"/>
  <path d="m421.39 250.53c0 12.719-10.309 23.027-23.031 23.027-12.719 0-23.027-10.309-23.027-23.027s10.309-23.031 23.027-23.031c12.723 0 23.031 10.312 23.031 23.031"/>
  <path d="m485.55 250.53c0 12.719-10.312 23.027-23.031 23.027s-23.027-10.309-23.027-23.027 10.309-23.031 23.027-23.031 23.031 10.312 23.031 23.031"/>
  <path d="m436.12 6.5625h-251.48c-21.699 0-39.199 17.586-39.199 39.199v468.48c0 21.613 17.5 39.199 39.199 39.199h251.48c21.699 0 39.199-17.586 39.199-39.199l0.003906-130.46c-13.824 5.4258-28.523 9.4492-43.926 11.812v43.574h-242.02l-0.003906-366.45h242.02v21.613c15.398 2.3633 30.102 6.3867 43.926 11.812v-60.375c0.003906-21.613-17.496-39.199-39.199-39.199zm-125.73 460.77c14.699 0 26.602 11.898 26.602 26.602 0 14.699-11.898 26.602-26.602 26.602-14.613 0-26.602-11.898-26.602-26.602 0-14.699 11.988-26.602 26.602-26.602zm55.91-418.07h-111.82c-2.8008 0-5.0742-4.2891-5.0742-9.4492 0-5.25 2.2734-9.4492 5.0742-9.4492h111.82c2.8008 0 5.0742 4.1992 5.0742 9.4492 0 5.1641-2.2734 9.4492-5.0742 9.4492z"/>
</g>
</svg>
