<?xml version="1.0" encoding="UTF-8"?>
<svg width="700pt" height="700pt" version="1.1" viewBox="0 0 700 700" xmlns="http://www.w3.org/2000/svg" xmlns:xlink="http://www.w3.org/1999/xlink">
 <g>
  <path d="m220.01 44.613c0.74219 6.8438-0.95312 11.258-7.8477 10.465-0.73828-6.8438 0.95313-11.254 7.8477-10.465z" fill-rule="evenodd"/>
  <path d="m400.54 44.613h10.473c3.0547 9.0781-14.629 12.164-10.473 0z" fill-rule="evenodd"/>
  <path d="m246.18 57.691c6.8867-0.78516 8.5859 3.6289 7.8477 10.465h-10.465c-1.1016-5.4688 1.7969-6.9219 2.6172-10.465z" fill-rule="evenodd"/>
  <path d="m520.91 60.312h7.8516v10.465h-10.473c-0.32422-4.6914 3.207-5.5117 2.6211-10.465z" fill-rule="evenodd"/>
  <path d="m301.12 68.16h7.8516c0.68359 8.5312-3.1094 12.594-10.473 13.086-0.83203-6.0703 0.42578-10.047 2.6211-13.086z" fill-rule="evenodd"/>
  <path d="m568 70.777h7.8516v10.465c-8.7383 2.6289-8.5859-3.625-7.8516-10.465z" fill-rule="evenodd"/>
  <path d="m267.11 73.398c6.6641 0.26172 6.1836 9.75 2.6211 13.078-10.711 1.4375-8.8516-11.301-2.6211-13.078z" fill-rule="evenodd"/>
  <path d="m363.91 81.242c4.5977 0.62891 5.9727 4.5 5.2344 10.465h-7.8477c-1.1016-5.4688 1.7891-6.9219 2.6133-10.465z" fill-rule="evenodd"/>
  <path d="m217.39 154.5c-50.699 11.816-59.461-41.707-34.012-62.793 14.734 3.1914 50.277-11.82 57.555 15.699 5.0508 19.043-8.918 35.793-23.543 47.094zm-28.777-13.078c9.8984 6.3828 21.254 4.4609 34.016 2.6133 8.5312-7.3438 17.492-34.184 2.6133-41.863 10.879 27.836-22.602 28.191-36.629 39.25z" fill-rule="evenodd"/>
  <path d="m141.52 99.555c1.1992 8.1758-5.5859 8.3672-13.078 7.8516v-7.8516c3.4336-3.3594 9.6406-3.3594 13.078 0z" fill-rule="evenodd"/>
  <path d="m494.74 99.555h7.8477c0.10547 7.957 1.5312 17.223-7.8477 15.699-3.5781-3.3477-3.5781-12.352 0-15.699z" fill-rule="evenodd"/>
  <path d="m416.24 115.25c-0.34766 26.098-0.69141 46.535-2.625 65.422-32.785-4.0391-60.715 14.777-57.555 54.941 13.809 0.39062 32.711-0.36719 49.711-2.6211 1.9414 19.93-7.1367 37.973 0 54.949-6.6875 11.617-25.105 11.504-44.469 10.473-3.6133 7.5742-5.9805 32.914 2.6133 36.625-11.961 10.789-8.9648 47.309-5.2344 65.422-14.086 13.812-46.027 9.7891-68.027 15.699-11.609-34.09-11.5-80.508-10.465-120.36-11.406-4.3945-28.223 6-44.484 5.2383-3.9375-18.742-3.8516-41.504-5.2266-62.801 23.457-5.793 31.172 1.8867 52.324-5.2344 1.0234-82.711 49.262-118.2 133.44-117.75zm-120.35 120.36c-7.1602 14.648-35.816 7.7969-52.328 13.078-1.543 15.246 2.5391 30.719 0 39.25 18.457 1.8867 27.258-5.8789 44.484-5.2344 5.8477 38.633-1.8672 90.82 15.699 117.74 7.2852 1.8398 30.352-0.25 41.855-2.625-3.1094-35.074 0.58594-73.609 2.6211-107.27 15.984 0.28125 29.699-1.6875 41.855-5.2383 5.2656-7.8164 1.4883-24.684 2.625-36.629-14.355-8.1016-35.262 5.9805-49.715-2.6133-0.82031-46.176 17.211-73.496 60.176-75.879-0.019531-19.09 0.58594-30.004 2.6133-41.863-69.219-8.3008-119.15 37.152-109.89 107.28z" fill-rule="evenodd"/>
  <path d="m308.97 120.49h5.2266c-0.48047 2.2227 1.0195 2.4648 2.6211 2.6133v5.2344c-2.2266-0.48047-2.4648 1.0195-2.6211 2.6133h-5.2266c0.48047-2.2227-1.0195-2.4648-2.6211-2.6133v-5.2344c2.2383 0.48828 2.4727-1.0195 2.6211-2.6133z" fill-rule="evenodd"/>
  <path d="m458.11 125.73h10.461c1.1211 5.4688-1.7852 6.918-2.6055 10.465-6.9023 0.78516-8.5898-3.6289-7.8555-10.465z" fill-rule="evenodd"/>
  <path d="m481.66 146.65v7.8516c-4.6406-0.59766-13.109 2.6328-10.477-5.2344 2.3359-2.0312 5.9141-2.8125 10.477-2.6172z" fill-rule="evenodd"/>
  <path d="m246.18 157.12c13.945-1.6172 12.07 14.891-2.6211 10.465-1.0977-5.4688 1.8008-6.9336 2.6211-10.465z" fill-rule="evenodd"/>
  <path d="m437.17 159.74c4.7305 4.4922-0.80859 10.293-7.8516 10.465-0.72656-6.8398 0.95703-11.25 7.8516-10.465z" fill-rule="evenodd"/>
  <path d="m507.81 170.2h7.8516c1.1133 5.4688-1.7852 6.9258-2.6055 10.473-4.6016-0.63672-5.9648-4.5078-5.2461-10.473z" fill-rule="evenodd"/>
  <path d="m539.22 191.13v7.8516c-4.6406-0.59766-13.09 2.6367-10.465-5.2344 2.3242-2.0312 5.9141-2.8086 10.465-2.6172z" fill-rule="evenodd"/>
  <path d="m170.3 196.38c4.2266-0.74219 4.5039 2.4648 7.8477 2.6133 0.78516 6.8945-3.6211 8.5859-10.461 7.8477-1.1133-5.4727 1.7891-6.9336 2.6133-10.461z" fill-rule="evenodd"/>
  <path d="m259.26 196.38c1.2148 8.1875-2.2773 11.68-10.465 10.461-1.2227-8.1914 2.2695-11.684 10.465-10.461z" fill-rule="evenodd"/>
  <path d="m377 196.38c7.8711-2.6367 4.6367 5.8242 5.2266 10.461h-7.8477c-1.1094-5.4727 1.8047-6.9336 2.6211-10.461z" fill-rule="evenodd"/>
  <path d="m520.91 198.98c0.74219 6.8398-0.95703 11.258-7.8477 10.465-1.3867-2.1016-2.7305-4.25-2.625-7.8477 2.332-2.0273 5.9102-2.8086 10.473-2.6172z" fill-rule="evenodd"/>
  <path d="m489.51 206.83c1.0938 20.289-7.7227 30.652-28.789 28.785-16.926-18.457 9.4336-46.625 28.789-28.785zm-7.8438 7.8477c1.1758-4.2734-14.262-4.2734-13.09 0 0.3125 3.7266 14.34 10.781 13.09 0z" fill-rule="evenodd"/>
  <path d="m431.95 212.07h-10.477c-2.0469-10.078 12.539-10.078 10.477 0z" fill-rule="evenodd"/>
  <path d="m178.15 217.3h7.8516c0.73438 6.8438-0.95312 11.258-7.8516 10.473-4.3633-5.1992 0.23828-3.3281 0-10.473z" fill-rule="evenodd"/>
  <path d="m246.18 217.3c7.7773 0.23047 7 15.605-2.6211 13.086-0.82422-6.0664 0.42578-10.047 2.6211-13.086z" fill-rule="evenodd"/>
  <path d="m397.92 217.3c0.73438 6.8438-0.94531 11.258-7.8516 10.473-0.73437-6.8477 0.96484-11.262 7.8516-10.473z" fill-rule="evenodd"/>
  <path d="m560.15 217.3c10.078-2.0586 10.078 12.523 0 10.473v-10.473z" fill-rule="evenodd"/>
  <path d="m528.76 238.23h7.8516c0.73438 6.8438-0.95703 11.258-7.8516 10.465v-10.465z" fill-rule="evenodd"/>
  <path d="m471.19 253.93h10.477c-0.32812 6.6562-3.8125 10.148-10.477 10.465v-10.465z" fill-rule="evenodd"/>
  <path d="m191.23 256.54c10.926 1.75 1.2148 16.246-5.2344 7.8477 0.92188-3.4375 4.5977-4.1094 5.2344-7.8477z" fill-rule="evenodd"/>
  <path d="m149.36 259.16c14.891 10.621-15.195 17.473 0 0z" fill-rule="evenodd"/>
  <path d="m175.54 264.39c4.2266-0.73438 4.5039 2.4766 7.8516 2.6211 0.78516 6.8945-3.6289 8.5859-10.473 7.8516-1.1055-5.4766 1.8008-6.9336 2.6211-10.473z" fill-rule="evenodd"/>
  <path d="m201.7 287.94c8.1992 1.8047 3.4102 6.9766 2.6133 13.09-11.691 0.42969-6.75-9.2148-2.6133-13.09z" fill-rule="evenodd"/>
  <path d="m494.74 290.56c0.74609 6.8398-0.95313 11.258-7.8516 10.473-0.74219-6.8516 0.95703-11.262 7.8516-10.473z" fill-rule="evenodd"/>
  <path d="m518.29 293.18h5.2344c-0.47266 2.2227 1.0195 2.4648 2.6211 2.6133v5.2383c-2.2148-0.49219-2.4648 1.0156-2.6211 2.6055h-5.2344c0.48047-2.2266-1.0156-2.4648-2.6211-2.6055v-5.2383c2.2305 0.48438 2.4727-1.0273 2.6211-2.6133z" fill-rule="evenodd"/>
  <path d="m418.86 314.11c6.8867-0.79688 8.5859 3.6211 7.8516 10.465h-10.473c-0.32422-4.7031 3.1992-5.5312 2.6211-10.465z" fill-rule="evenodd"/>
  <path d="m390.07 319.34c4.6172 0.62891 5.9805 4.5117 5.2383 10.473h-7.8477c-1.1055-5.4766 1.7969-6.918 2.6094-10.473z" fill-rule="evenodd"/>
  <path d="m499.97 329.81c2.6992 10.672-12.219 13.945-10.461 2.6211 2.3164-2.0352 5.9102-2.8203 10.461-2.6211z" fill-rule="evenodd"/>
  <path d="m154.61 361.21c6.8945-0.78906 8.5859 3.6289 7.8477 10.477h-10.461c-1.1172-5.4805 1.7852-6.9414 2.6133-10.477z" fill-rule="evenodd"/>
  <path d="m256.64 363.83c-0.31641 6.6406-3.8008 10.141-10.461 10.453-8.1484-7.207 3.2578-18.609 10.461-10.453z" fill-rule="evenodd"/>
  <path d="m212.16 369.06c1.8242 9.668-4.1445 11.555-13.078 10.473v-7.8477c3.0312-2.2148 7.0117-3.457 13.078-2.625z" fill-rule="evenodd"/>
  <path d="m447.64 379.52h-10.473c-2.043-10.074 12.531-10.074 10.473 0z" fill-rule="evenodd"/>
  <path d="m452.87 382.13v7.8516c-8.3359-1.5508-8.0898 4.9023-13.078 0 2.3984-4.5859 4.875-9.0859 13.078-7.8516z" fill-rule="evenodd"/>
  <path d="m240.94 395.23v10.453h-10.461c-1.2148-8.1836 2.2734-11.688 10.461-10.453z" fill-rule="evenodd"/>
  <path d="m212.16 410.92c-1.1562 11.93-8.5 17.66-15.699 23.551-14.062-6.5039-16.246-10.422-15.703-28.797 7.1367-13.875 27.277-5.8125 31.402 5.2461zm-18.316 10.461c9.6211 2.5195 10.402-12.836 2.6211-13.078 1.0664 6.3008-4.7852 5.6836-2.6211 13.078z" fill-rule="evenodd"/>
  <path d="m259.26 434.47c6.8438-0.74219 11.258 0.94531 10.465 7.8477-2.3281 2.0352-5.9102 2.8125-10.465 2.6133v-10.461z" fill-rule="evenodd"/>
  <path d="m523.52 434.47c4.2383-0.74219 4.5039 2.4648 7.8516 2.6055 0.78906 6.8867-3.6133 8.582-10.465 7.8516-1.1211-5.4648 1.7852-6.9219 2.6133-10.457z" fill-rule="evenodd"/>
  <path d="m175.54 450.17c-7.3984-2.1641-6.7773 3.6836-13.086 2.6133-4.3984-12.434 15.059-14.438 13.086-2.6133z" fill-rule="evenodd"/>
  <path d="m348.22 450.17c4.5977 0.62891 5.9609 4.4922 5.2266 10.461h-7.8516c-1.1016-5.4727 1.8047-6.9258 2.625-10.461z" fill-rule="evenodd"/>
  <path d="m568 450.17c2.1641 7.3906-3.6953 6.7812-2.625 13.078-3.8203-2.2852-10.129-2.0859-7.8477-10.465 2.3359-2.0352 5.9141-2.8203 10.473-2.6133z" fill-rule="evenodd"/>
  <path d="m366.53 452.79c2.1641 7.3984-3.6836 6.7695-2.6133 13.09-7.7852-0.24219-6.9961-15.617 2.6133-13.09z" fill-rule="evenodd"/>
  <path d="m269.73 471.1c4.1445 0.21094 9.9805-1.2578 10.465 2.6211 2.8594 9.1836-16.051 7.0039-10.465-2.6211z" fill-rule="evenodd"/>
  <path d="m431.95 471.1c4.3477 5.1953-0.23828 3.3242 0 10.473-10.066 2.0469-10.066-12.531 0-10.473z" fill-rule="evenodd"/>
  <path d="m159.84 476.33c-1.582 5.4062-4.043 9.9102-13.086 7.8516v-7.8516c3.4414-3.3594 9.6445-3.3594 13.086 0z" fill-rule="evenodd"/>
  <path d="m235.71 476.33c0.78906 6.8867-3.6289 8.582-10.465 7.8516-0.78516-6.8984 3.625-8.5859 10.465-7.8516z" fill-rule="evenodd"/>
  <path d="m557.54 476.33c6.8438-0.73438 11.25 0.95312 10.473 7.8516-4.9141 5.1367-12.602 1.5156-10.473-7.8516z" fill-rule="evenodd"/>
  <path d="m369.14 484.18c10.066-2.0547 10.066 12.531 0 10.465-4.3594-5.1992 0.23047-3.3281 0-10.465z" fill-rule="evenodd"/>
  <path d="m178.15 489.41c0.74219 6.8398-0.95313 11.258-7.8477 10.461-0.73828-6.8438 0.95312-11.25 7.8477-10.461z" fill-rule="evenodd"/>
  <path d="m390.07 492.03c7.8789-2.6367 4.6406 5.832 5.2383 10.465h-7.8477c-1.1055-5.4727 1.7969-6.9219 2.6094-10.465z" fill-rule="evenodd"/>
  <path d="m112.74 497.27c8.2578 0.45312 15.605 1.8281 15.699 10.461-5.7188 4.9453-16.648-0.75781-15.699-10.461z" fill-rule="evenodd"/>
  <path d="m308.97 497.27h10.465c1.2148 8.1758-2.2773 11.672-10.465 10.461v-10.461z" fill-rule="evenodd"/>
  <path d="m468.57 497.27c10.934 1.7344 1.2266 16.234-5.2266 7.8477 0.92188-3.4297 4.5977-4.125 5.2266-7.8477z" fill-rule="evenodd"/>
  <path d="m426.71 512.96c4.7305 4.4844-0.80078 10.277-7.8516 10.465-0.73438-6.8516 0.96094-11.258 7.8516-10.465z" fill-rule="evenodd"/>
  <path d="m251.41 515.57c6.8945-0.77734 8.5859 3.6133 7.8516 10.465h-10.465c-1.1133-5.4766 1.7891-6.9141 2.6133-10.465z" fill-rule="evenodd"/>
  <path d="m439.79 471.1c-28.266-62.621 60.43-72.852 60.176-20.926-0.13672 29.902-35.258 37.863-60.176 20.926zm5.2266-26.164c10.664-5.0391 22.215-9.1953 34.023-13.086-12.328-12.875-32.012-0.42188-34.023 13.086z" fill-rule="evenodd"/>
  <path d="m445.02 42c49.176 7.6289 104.28-45.945 141.29-13.086 37.594 33.363-27.82 85.336-44.477 109.89 30.855 35.758 60.09 48.09 54.941 102.04-3.1992 33.707-36.367 57.367-41.863 86.34-10.496 55.352 22.824 84.336 44.484 120.36-2.9414 19.719 6.2227 60.242-10.473 73.262-31.559 8.293-46.305-16.57-70.648-23.543-28.621 16.789-58.531 46.426-96.816 41.855-23.562-2.8047-41.684-24.77-65.402-26.16-35.422-2.0703-50.816 21.254-83.727 36.625-35.074-0.57422-56.297-29.75-88.961-31.398-29.672-1.4766-63.391 31.949-91.578 2.625-9.5625-44.039 20.957-67.051 36.629-94.191 1.1211-15.395-12.75-21.344-13.086-34.023-0.89063-33.73 44.184-69.32 15.699-109.89-55.297-12.52-2.6133-63.305-2.6133-96.812 0-39.797-49.754-58.422-34.016-112.5 5.5938-19.203 26.375-52.402 47.098-52.336 12.098 0.042968 23.781 11.195 36.629 13.086 32.551 4.793 66.051-27.016 94.215-20.93 24.285 5.25 33.645 32.641 68.027 31.398 30.863-15.277 83.824-50.109 104.64-2.6133zm-188.38-7.8516c-8.2461 0.39062-1.1016-14.59-13.078-10.465-25.41 8.3359-39.504 21.516-68.027 18.312-16.633-1.8672-34.348-16.711-49.715-7.8516-8.9492 21.848-29.66 38.324-26.164 65.41 2.8125 21.723 23.383 43.113 36.629 52.336-4.8672 12.008 0.81641 18.547 0 28.785-2.1484 26.93-25.988 54.281-23.551 70.641 2.8672 19.207 27.547 21.879 39.25 39.25-2.4453 2.8008-9.6562 0.81641-7.8516 7.8516 8.6797 36.293-12.953 63.367-18.316 94.191 36.121 49.543-44.82 66.777-23.551 125.59 8.1523 1.4375 17.055 2.1328 23.551 5.2383-1.5859-10.305 5.8555-11.586 13.086-13.086v13.086c47.258-33.836 90.078 9.5391 136.05 15.691 29.059-14.23 49.617-40.207 88.961-36.629 23.82 2.1641 46.094 25.484 68.035 26.172 31.508 0.95703 64.227-38.367 86.34-39.25 26.602-1.0703 36.805 32.398 68.027 23.543 25.156-56.723-30.93-89.664-39.25-136.05-12.352-68.984 48.391-96.109 41.871-156.99-1.2578-11.691-7.5234-22.523-13.078-39.242-15.367-14.344-40.445-14.312-41.871-36.637-2.1797-33.922 92.961-69.914 39.25-112.5-44.895-4.793-75.711 15.082-130.81 20.926-7.8359-25.461-57.043-42.77-68.055-7.8516-11.836-4.6172-23.961 7.3477-39.242 7.8477-28.375 0.94141-51.34-21.086-70.648-31.398-3.6406 3.3359-1.1328 12.816-7.8477 13.086z" fill-rule="evenodd"/>
 </g>
</svg>
