<?xml version="1.0" encoding="UTF-8"?>
<svg width="700pt" height="700pt" version="1.1" viewBox="0 0 700 700" xmlns="http://www.w3.org/2000/svg" xmlns:xlink="http://www.w3.org/1999/xlink">
 <g>
  <path d="m527.52 253.12c1.1211-5.0391 1.6797-10.641 1.6797-15.68 0-47.039-38.078-85.121-85.121-85.121-9.5195 0-19.039 1.6797-28 5.0391-20.16-45.922-66.078-75.602-116.48-75.602-70.559 0-127.68 57.121-127.68 127.12-42 12.32-71.68 51.52-71.68 95.762 0 54.879 44.801 99.68 99.68 99.68h10.078l0.003906 66.078c0 4.4805 3.9219 8.3984 8.3984 8.3984h264.32c4.4805 0 8.3984-3.9219 8.3984-8.3984l0.003906-66.078h34.16c41.441 0 75.602-33.602 75.602-75.602-0.5625-40.879-33.043-74.48-73.363-75.598zm-182.56 161.28c1.6797 1.1211 3.3594 1.6797 5.0391 1.6797s3.3594-0.55859 5.0391-1.6797l39.762-27.441 68.32 75.039-226.24 0.003906 68.32-75.039zm5.0391-17.359-105.28-73.359h210.56zm-123.76-9.5195v-56l65.52 45.359-65.52 71.68zm247.52 61.039-65.523-71.68 65.52-45.359v72.801zm50.957-61.039h-34.16v-72.238c0-4.4805-3.9219-8.3984-8.3984-8.3984l-264.32-0.003906c-4.4805 0-8.3984 3.9219-8.3984 8.3984v71.68h-10.078c-45.922 0-82.879-36.961-82.879-82.879 0-38.641 27.441-72.801 64.961-81.199 3.9219-1.1211 6.7188-4.4805 6.7188-8.3984v-5.6016c0-61.039 49.84-110.88 110.88-110.88 46.48 0 88.48 29.121 104.16 72.801 0.55859 2.2383 2.2383 3.9219 4.4805 5.0391 2.2383 1.1211 4.4805 1.1211 6.7188 0 8.9609-4.4805 19.039-6.7188 29.121-6.7188 37.52 0 68.32 30.801 68.32 68.32 0 7.2812-1.1211 15.121-3.9219 21.84-1.1211 2.8008-0.55859 5.6016 1.6797 7.8398 1.6797 2.2383 4.4805 3.3594 7.2812 2.8008 2.2383 0 5.0391-0.55859 7.2812-0.55859 32.48 0 58.801 26.32 58.801 58.801 0.55469 33.035-25.766 59.355-58.246 59.355z"/>
 </g>
</svg>
