<?xml version="1.0" encoding="UTF-8"?>
<svg width="700pt" height="700pt" version="1.1" viewBox="0 0 700 700" xmlns="http://www.w3.org/2000/svg" xmlns:xlink="http://www.w3.org/1999/xlink">
 <g>
  <path d="m176.4 33.602c-40.004 0-72.797 32.793-72.797 72.797 0 40.008 32.793 72.801 72.797 72.801 40.008 0 72.801-32.793 72.801-72.801 0-40.004-32.793-72.797-72.801-72.797zm0 33.602c21.848 0 39.199 17.352 39.199 39.199s-17.352 39.199-39.199 39.199c-21.848 0-39.199-17.352-39.199-39.199s17.352-39.199 39.199-39.199zm291.2 112c-31.777 0-54.727 11.941-72.801 26.602-0.69531-8.3203-8.4531-15.43-16.801-15.402h-89.602c-8.7969 0-16.801 8.0039-16.801 16.801v302.4c0 8.7969 8.0039 16.801 16.801 16.801h95.199c8.7969 0 16.801-8.0039 16.801-16.801v-168c0-13.039 4.1875-25.355 9.9766-33.426 5.7891-8.0664 12.094-11.371 18.023-11.371h11.199c5.9297 0 12.238 3.3086 18.023 11.375 5.793 8.0664 9.9805 20.383 9.9805 33.426v168c0 8.7969 8.0039 16.801 16.801 16.801h95.199c8.7969 0 16.801-8.0039 16.801-16.801l-0.003906-196c0-38.055-7.1484-71.961-28.348-96.777-21.203-24.816-55.211-37.625-100.45-37.625zm-337.75 11.199c-8.1992 0.85937-15.094 8.5586-15.051 16.801v302.4c0 8.7969 8.0039 16.801 16.801 16.801h95.199c8.7969 0 16.801-8.0039 16.801-16.801v-302.4c0-8.7969-8.0039-16.801-16.801-16.801h-96.949zm337.75 22.402c39.16 0 61.199 9.8672 74.898 25.898 13.699 16.035 20.301 41.152 20.301 74.902v179.2h-61.602v-151.2c0-19.848-5.8672-38.516-16.273-53.027-10.41-14.508-26.438-25.375-45.324-25.375h-11.199c-18.887 0-34.918 10.863-45.324 25.375-10.41 14.512-16.277 33.18-16.277 53.027v61.602c-0.58203-0.03125-1.168-0.03125-1.75 0-8.7969 0.45703-16.387 8.8789-15.93 17.676 0.46094 8.793 8.8828 16.379 17.68 15.922v11.199c-0.58203-0.03125-1.168-0.03125-1.75 0-8.7969 0.45703-16.387 8.8789-15.93 17.676 0.46094 8.7969 8.8828 16.383 17.68 15.926v11.199h-61.602v-268.8h56v22.398c-0.003907 6.9102 4.7188 13.574 11.238 15.863 6.5195 2.2891 14.371 0.035156 18.688-5.3633 18.633-23.227 36.605-44.098 76.477-44.098zm-319.2 11.199h61.602v179.2c-0.58203-0.03125-1.168-0.03125-1.75 0-8.7969 0.45703-16.387 8.8789-15.93 17.676s8.8789 16.383 17.676 15.926v11.199c-0.58203-0.03125-1.168-0.03125-1.75 0-8.7969 0.45703-16.387 8.8789-15.93 17.676 0.46094 8.7969 8.8828 16.383 17.68 15.926v11.199h-61.602z"/>
 </g>
</svg>
