<?xml version="1.0" encoding="UTF-8"?>
<svg width="700pt" height="700pt" version="1.1" viewBox="0 0 700 700" xmlns="http://www.w3.org/2000/svg" xmlns:xlink="http://www.w3.org/1999/xlink">
 <g>
  <path d="m364.5 214.16c-4.7031 0-8.5117 3.8086-8.5117 8.5117s3.8086 8.457 8.5117 8.457c4.6484 0 8.457-3.7539 8.457-8.457s-3.8086-8.5117-8.457-8.5117z"/>
  <path d="m597.8 173.83-66.707-11.227 6.7891-63.805-44.676 46.633 0.61719 1.0078c-34.984-36.309-84.066-58.941-138.45-58.941-45.246 0-106.12 18.984-148.4 85.902-33.824 53.48-11.09 99.961-31.246 123.93-26.824 31.809-73.527-16.688-73.527-16.688s26.266 202.27 253.18 191.46c106.06-5.0391 192.3-86.07 192.3-192.3 0-24.516-4.6406-47.941-13.016-69.512zm-346.14 189.63c-23.855 0-43.176-19.32-43.176-43.176h86.352c0 23.855-19.32 43.176-43.176 43.176zm112.84-75.039c-36.344 0-65.742-29.457-65.742-65.742 0-36.344 29.398-65.742 65.742-65.742 36.289 0 65.742 29.398 65.742 65.742 0 36.285-29.453 65.742-65.742 65.742z"/>
 </g>
</svg>
