<?xml version="1.0" encoding="UTF-8" standalone="no"?>
<svg
   width="532pt"
   height="532pt"
   version="1.1"
   viewBox="0 0 532 532"
   id="svg67"
   sodipodi:docname="favicon.svg"
   inkscape:version="1.1.2 (0a00cf5339, 2022-02-04)"
   xmlns:inkscape="http://www.inkscape.org/namespaces/inkscape"
   xmlns:sodipodi="http://sodipodi.sourceforge.net/DTD/sodipodi-0.dtd"
   xmlns="http://www.w3.org/2000/svg"
   xmlns:svg="http://www.w3.org/2000/svg">
  <defs
     id="defs71" />
  <sodipodi:namedview
     id="namedview69"
     pagecolor="#ffffff"
     bordercolor="#666666"
     borderopacity="1.0"
     inkscape:pageshadow="2"
     inkscape:pageopacity="0.0"
     inkscape:pagecheckerboard="0"
     inkscape:document-units="pt"
     showgrid="false"
     viewbox-width="699.9"
     fit-margin-top="0"
     fit-margin-left="0"
     fit-margin-right="0"
     fit-margin-bottom="0"
     inkscape:zoom="0.45482143"
     inkscape:cx="-93.443267"
     inkscape:cy="111.03259"
     inkscape:window-width="1920"
     inkscape:window-height="1054"
     inkscape:window-x="0"
     inkscape:window-y="0"
     inkscape:window-maximized="1"
     inkscape:current-layer="svg67" />
  <g
     id="g65"
     transform="translate(-84,-14)">
    <path
       d="m 356.72,366.24 c -20.719,2.8008 -42,-4.4805 -56.559,-20.16 l -38.641,36.961 c 22.398,24.078 54.32,36.961 86.801,36.961 5.0391,0 10.641,-0.55859 15.68,-1.1211 55.441,-7.2812 99.121,-53.199 103.04,-109.2 l -53.199,-3.9219 c -2.2383,30.801 -26.32,56.562 -57.121,60.48 z"
       id="path57" />
    <path
       d="M 350,14 C 203.28,14 84,133.28 84,280 84,426.72 203.28,546 350,546 496.72,546 616,426.72 616,280 616,133.28 496.72,14 350,14 Z m 0,478.8 C 232.96,492.8 137.2,397.601 137.2,280 137.2,162.399 232.399,67.2 350,67.2 c 117.601,0 212.8,95.199 212.8,212.8 0,117.601 -95.762,212.8 -212.8,212.8 z"
       id="path59" />
    <path
       d="m 310.24,218.96 c 0,24.121 -19.555,43.68 -43.68,43.68 -24.121,0 -43.68,-19.559 -43.68,-43.68 0,-24.125 19.559,-43.68 43.68,-43.68 24.125,0 43.68,19.555 43.68,43.68"
       id="path61" />
    <path
       d="m 456.4,165.2 -90.16,53.762 90.16,53.758 20.723,-34.719 -32.48,-19.039 32.48,-19.039 z"
       id="path63" />
  </g>
</svg>
