<?xml version="1.0" encoding="UTF-8"?>
<svg width="700pt" height="700pt" version="1.1" viewBox="0 0 700 700" xmlns="http://www.w3.org/2000/svg" xmlns:xlink="http://www.w3.org/1999/xlink">
 <g>
  <path d="m356.72 366.24c-20.719 2.8008-42-4.4805-56.559-20.16l-38.641 36.961c22.398 24.078 54.32 36.961 86.801 36.961 5.0391 0 10.641-0.55859 15.68-1.1211 55.441-7.2812 99.121-53.199 103.04-109.2l-53.199-3.9219c-2.2383 30.801-26.32 56.562-57.121 60.48z"/>
  <path d="m350 14c-146.72 0-266 119.28-266 266s119.28 266 266 266 266-119.28 266-266-119.28-266-266-266zm0 478.8c-117.04 0-212.8-95.199-212.8-212.8s95.199-212.8 212.8-212.8 212.8 95.199 212.8 212.8-95.762 212.8-212.8 212.8z"/>
  <path d="m310.24 218.96c0 24.121-19.555 43.68-43.68 43.68-24.121 0-43.68-19.559-43.68-43.68 0-24.125 19.559-43.68 43.68-43.68 24.125 0 43.68 19.555 43.68 43.68"/>
  <path d="m456.4 165.2-90.16 53.762 90.16 53.758 20.723-34.719-32.48-19.039 32.48-19.039z"/>
 </g>
</svg>
