<?xml version="1.0" standalone="no"?>
<!DOCTYPE svg PUBLIC "-//W3C//DTD SVG 20010904//EN"
 "http://www.w3.org/TR/2001/REC-SVG-20010904/DTD/svg10.dtd">
<svg version="1.0" xmlns="http://www.w3.org/2000/svg"
 width="700.000000pt" height="700.000000pt" viewBox="0 0 700.000000 700.000000"
 preserveAspectRatio="xMidYMid meet">
<metadata>
Created by potrace 1.14, written by Peter Selinger 2001-2017
</metadata>
<g transform="translate(0.000000,700.000000) scale(0.100000,-0.100000)"
fill="#000000" stroke="none">
<path d="M3278 6996 c-1 -2 -42 -6 -89 -10 -47 -4 -95 -8 -105 -10 -10 -2 -46
-7 -79 -11 -59 -7 -79 -10 -125 -20 -34 -7 -69 -14 -105 -21 -63 -11 -235 -57
-340 -91 -1092 -351 -1945 -1214 -2284 -2313 -54 -178 -105 -422 -127 -605
-26 -234 -26 -641 1 -829 3 -17 7 -49 9 -71 10 -83 18 -131 26 -165 5 -19 12
-48 14 -65 53 -294 196 -677 374 -994 121 -217 338 -518 466 -647 12 -12 37
-39 57 -60 77 -84 248 -242 329 -304 25 -19 47 -37 50 -40 20 -23 294 -209
370 -253 308 -175 492 -254 850 -361 39 -12 153 -39 215 -52 135 -27 153 -30
224 -40 25 -3 57 -8 71 -10 168 -26 655 -25 850 2 89 12 104 15 124 19 12 2
37 7 56 9 181 26 454 104 686 196 595 237 1127 645 1508 1160 336 451 548 946
645 1500 11 63 23 142 26 175 4 33 9 71 11 85 9 47 11 525 3 605 -15 165 -21
220 -24 225 -2 3 -6 30 -10 60 -7 55 -58 298 -75 355 -116 393 -242 672 -445
990 -42 65 -190 269 -229 313 -13 15 -43 50 -66 77 -122 144 -321 333 -485
461 -384 299 -800 505 -1270 629 -124 33 -249 60 -325 70 -19 3 -46 7 -60 10
-13 2 -52 7 -86 11 -33 3 -74 8 -90 10 -33 5 -540 14 -546 10z m507 -709 c17
-3 55 -8 85 -11 135 -17 290 -51 430 -93 750 -226 1363 -743 1705 -1438 109
-222 204 -485 229 -636 3 -19 12 -70 21 -113 8 -44 18 -100 21 -125 2 -25 9
-77 13 -116 14 -113 6 -495 -13 -625 -48 -328 -136 -612 -280 -895 -60 -120
-214 -366 -268 -430 -10 -11 -31 -38 -48 -60 -83 -106 -269 -295 -390 -396
-286 -240 -649 -433 -1004 -535 -123 -36 -266 -68 -353 -80 -26 -3 -57 -8 -68
-10 -125 -25 -650 -25 -726 0 -8 3 -36 7 -64 10 -27 3 -72 10 -100 16 -27 6
-63 13 -80 16 -62 13 -214 56 -315 91 -464 158 -925 478 -1230 853 -25 30 -53
64 -63 75 -37 41 -207 303 -256 395 -172 325 -281 686 -318 1050 -15 147 -8
524 11 640 3 14 7 47 11 74 3 27 8 52 10 55 1 3 6 22 9 41 12 75 18 98 42 190
27 101 84 267 115 337 11 23 19 45 19 48 0 12 130 267 150 296 11 15 20 30 20
33 0 7 136 208 163 242 319 395 593 621 998 824 186 94 461 191 634 225 121
24 252 44 320 50 44 4 81 8 83 10 5 5 451 -3 487 -8z"/>
<path d="M4435 4734 c-253 -151 -467 -278 -475 -284 -17 -10 -111 -66 -182
-108 -26 -15 -48 -31 -48 -37 0 -10 164 -115 181 -115 5 0 9 -4 9 -10 0 -5 4
-10 9 -10 9 0 713 -416 763 -451 15 -10 29 -19 32 -19 2 0 33 -18 67 -40 63
-40 110 -63 114 -58 1 2 37 62 79 133 43 72 81 137 86 145 63 103 102 172 99
174 -16 12 -267 159 -339 198 -19 11 -45 27 -58 36 -23 18 -22 18 173 131 108
63 203 119 211 126 13 9 -2 40 -109 220 -69 116 -131 218 -139 227 -12 15 -57
-10 -473 -258z"/>
<path d="M2270 4860 c-92 -24 -133 -43 -207 -96 -231 -165 -302 -499 -158
-749 70 -122 216 -231 359 -268 71 -19 210 -19 279 -1 214 56 386 241 425 457
12 69 5 198 -14 267 -30 105 -133 242 -233 309 -133 89 -306 120 -451 81z"/>
<path d="M4339 3153 c-15 -171 -82 -335 -194 -474 -277 -343 -765 -421 -1138
-182 -38 24 -90 64 -116 88 l-48 45 -133 -128 c-73 -70 -187 -179 -254 -244
l-121 -116 55 -52 c80 -75 180 -154 235 -186 159 -91 292 -154 323 -154 10 0
22 -4 28 -9 10 -9 146 -46 204 -55 153 -25 308 -33 410 -22 19 2 64 7 100 11
227 24 513 140 718 292 325 240 561 628 617 1013 16 105 16 130 3 131 -7 0
-33 2 -58 4 -25 1 -88 6 -140 9 -52 3 -115 8 -140 11 -50 5 -157 13 -272 20
-43 3 -78 2 -79 -2z"/>
</g>
</svg>
